# xmcd
#
# Track frame offsets: 
#        150
#        5707
#        31917
#        48605
#        64727
#        83262
#        107597
#        123797
#        143620
#        165132
#        190425
#        215975
#        237357
#        255302
#
# Disc length: 3697 seconds
#
# Revision: 1
# Processed by: cddbd v1.5.2PL0 Copyright (c) Steve Scherf et al.
# Submitted via: ExactAudioCopyFreeDBPlugin 1.0
#
DISCID=b20e6f0e
DTITLE=Us 3 - Broadway and 52nd
DYEAR=1997
DGENRE=Acid Jazz
TTITLE0=Intro
TTITLE1=Come On Everybody (Get Down)
TTITLE2=Caught Up In A Struggle
TTITLE3=True To The Game
TTITLE4=Snakes
TTITLE5=I'm Thinking About Your Body
TTITLE6=Grand Groove
TTITLE7=Nowadays
TTITLE8=Sheep
TTITLE9=Doin' A Crime
TTITLE10=Recognize And Realise
TTITLE11=Time And Space
TTITLE12=Soul Brother
TTITLE13=Hymn For Her
EXTD=
EXTT0=
EXTT1=
EXTT2=
EXTT3=
EXTT4=
EXTT5=
EXTT6=
EXTT7=
EXTT8=
EXTT9=
EXTT10=
EXTT11=
EXTT12=
EXTT13=
PLAYORDER=
